<?xml version="1.0" standalone="no"?>
<!DOCTYPE svg PUBLIC "-//W3C//DTD SVG 20010904//EN"
 "http://www.w3.org/TR/2001/REC-SVG-20010904/DTD/svg10.dtd">
<svg version="1.0" xmlns="http://www.w3.org/2000/svg"
 width="180.000000pt" height="180.000000pt" viewBox="0 0 180.000000 180.000000"
 preserveAspectRatio="xMidYMid meet">

<g transform="translate(0.000000,180.000000) scale(0.100000,-0.100000)"
fill="#000000" stroke="none">
<path d="M461 1199 c-52 -10 -118 -47 -162 -91 -87 -87 -112 -246 -56 -360 84
-173 301 -230 464 -123 56 37 103 98 122 158 12 35 15 37 54 37 41 0 43 -1 60
-48 38 -108 149 -190 270 -199 133 -11 246 52 307 171 31 61 35 78 35 145 -1
97 -33 170 -106 235 -62 55 -132 81 -220 80 -143 -2 -255 -93 -303 -247 -5
-14 -14 -18 -42 -15 -34 3 -38 7 -55 54 -38 100 -132 181 -237 203 -59 12 -69
12 -131 0z m171 -165 c43 -30 78 -95 78 -145 -1 -50 -33 -112 -76 -145 -33
-25 -46 -29 -105 -29 -60 0 -71 3 -106 31 -73 58 -92 139 -52 221 48 99 170
130 261 67z m578 1 c0 -22 4 -25 35 -25 31 0 35 3 35 25 0 36 23 31 74 -16 42
-38 71 -90 59 -103 -4 -3 -17 -6 -30 -6 -20 0 -23 -5 -23 -35 0 -31 3 -35 25
-35 29 0 30 -2 10 -40 -15 -29 -65 -72 -97 -83 -15 -5 -18 -1 -18 23 0 28 -3
30 -35 30 -30 0 -35 -3 -35 -23 0 -13 -3 -26 -6 -30 -12 -12 -65 16 -99 54
-42 47 -45 69 -10 69 22 0 25 4 25 35 0 30 -3 35 -24 35 -14 0 -27 4 -30 8
-10 17 37 94 73 118 47 32 71 32 71 -1z"/>
<path d="M1505 606 c-16 -17 -41 -38 -54 -47 l-24 -15 35 -63 35 -62 49 36
c27 20 61 50 76 67 l27 31 -54 43 c-30 24 -55 43 -57 43 -2 -1 -16 -16 -33
-33z"/>
</g>
</svg>
